<?xml version="1.0" encoding="UTF-8" standalone="no"?>
<!-- Created with Inkscape (http://www.inkscape.org/) -->

<svg
   xmlns:dc="http://purl.org/dc/elements/1.1/"
   xmlns:cc="http://creativecommons.org/ns#"
   xmlns:rdf="http://www.w3.org/1999/02/22-rdf-syntax-ns#"
   xmlns:svg="http://www.w3.org/2000/svg"
   xmlns="http://www.w3.org/2000/svg"
   xmlns:sodipodi="http://sodipodi.sourceforge.net/DTD/sodipodi-0.dtd"
   xmlns:inkscape="http://www.inkscape.org/namespaces/inkscape"
   width="49.606297"
   height="49.606297"
   id="svg2"
   version="1.1"
   inkscape:version="0.47 r22583"
   sodipodi:docname="clubs.svg"
   inkscape:export-filename="/home/kai/thric3-project/trunk/pics/Thric3/clubs_blue_full.png"
   inkscape:export-xdpi="181.42857"
   inkscape:export-ydpi="181.42857">
  <defs
     id="defs4">
    <inkscape:perspective
       sodipodi:type="inkscape:persp3d"
       inkscape:vp_x="0 : 526.18109 : 1"
       inkscape:vp_y="0 : 1000 : 0"
       inkscape:vp_z="744.09448 : 526.18109 : 1"
       inkscape:persp3d-origin="372.04724 : 350.78739 : 1"
       id="perspective10" />
    <inkscape:perspective
       id="perspective2824"
       inkscape:persp3d-origin="0.5 : 0.33333333 : 1"
       inkscape:vp_z="1 : 0.5 : 1"
       inkscape:vp_y="0 : 1000 : 0"
       inkscape:vp_x="0 : 0.5 : 1"
       sodipodi:type="inkscape:persp3d" />
  </defs>
  <sodipodi:namedview
     id="base"
     pagecolor="#ffffff"
     bordercolor="#666666"
     borderopacity="1.0"
     inkscape:pageopacity="0.0"
     inkscape:pageshadow="2"
     inkscape:zoom="11.2"
     inkscape:cx="18.41641"
     inkscape:cy="18.391613"
     inkscape:document-units="px"
     inkscape:current-layer="layer1"
     showgrid="true"
     units="cm"
     inkscape:window-width="1920"
     inkscape:window-height="1152"
     inkscape:window-x="0"
     inkscape:window-y="25"
     inkscape:window-maximized="1">
    <inkscape:grid
       type="xygrid"
       id="grid2832"
       empspacing="5"
       visible="true"
       enabled="true"
       snapvisiblegridlinesonly="true"
       units="cm"
       spacingx="0.01cm"
       spacingy="0.01cm" />
  </sodipodi:namedview>
  <metadata
     id="metadata7">
    <rdf:RDF>
      <cc:Work
         rdf:about="">
        <dc:format>image/svg+xml</dc:format>
        <dc:type
           rdf:resource="http://purl.org/dc/dcmitype/StillImage" />
        <dc:title></dc:title>
      </cc:Work>
    </rdf:RDF>
  </metadata>
  <g
     inkscape:label="Ebene 1"
     inkscape:groupmode="layer"
     id="layer1"
     transform="translate(0,-1002.7546)">
    <path
       style="fill:#1e0096;fill-opacity:1;stroke:none"
       d="m 24.8125,1006.2858 -8.78125,7.5313 c -0.05302,0.4366 -0.09375,0.8789 -0.09375,1.3437 0,0.1411 0.04094,0.2858 0.0625,0.4375 l 10.65625,-9.125 c -0.587683,-0.1004 -1.201139,-0.1875 -1.84375,-0.1875 z m -2.40625,0.2813 c -2.779214,0.6404 -4.831474,2.4181 -5.8125,4.9687 l 5.8125,-4.9687 z m 5.84375,0.3125 -11.84375,10.1562 c 0.168331,0.4019 0.386689,0.819 0.625,1.25 l 12.5625,-10.7812 c -0.423884,-0.2443 -0.865278,-0.453 -1.34375,-0.625 z m 2.5,1.4062 -13,11.1563 c 0.237462,0.3747 0.458825,0.7466 0.71875,1.125 l 13.21875,-11.3125 c -0.289859,-0.3475 -0.591268,-0.6775 -0.9375,-0.9688 z m 1.71875,2.0625 -13.21875,11.3438 c 0.278378,0.3865 0.505711,0.72 0.78125,1.0937 l 13.03125,-11.1562 c -0.166045,-0.4464 -0.36404,-0.8832 -0.59375,-1.2813 z m 1,2.7188 -12.625,10.8125 c 0.260868,0.3553 0.552357,0.7384 0.78125,1.0625 l 12,-10.2813 c -0.02405,-0.5509 -0.05601,-1.086 -0.15625,-1.5937 z m -0.15625,3.6562 -10.9375,9.3751 c 0.305001,0.4955 0.525741,0.9403 0.59375,1.25 l 8.5,-7.2813 c 0.780598,-1.172 1.459974,-2.3205 1.84375,-3.3438 z m -20.9375,5.5313 c -0.841075,0 -1.629337,0.076 -2.375,0.25 l -5.8125,5 c -0.272921,0.7077 -0.46405,1.4633 -0.5625,2.2813 l 8.75,-7.5313 z m 24.78125,0 c -0.888249,0 -1.710776,0.1549 -2.5,0.4062 l -19.71875,16.9063 c 3.584319,-1.1291 6.146988,-4.3018 7.6875,-4.8437 l 0.0625,-0.031 14.46875,-12.4375 z m 1.90625,0.1562 -16.09375,13.8126 c -0.02585,0.6221 -0.03465,1.2548 -0.09375,1.8437 l 3.6875,-3.1875 c -5.16e-4,-0.085 0,-0.1647 0,-0.25 0.07332,0 0.170646,0.014 0.25,0.031 L 40.625,1022.848 c -0.501851,-0.1861 -1.009837,-0.3376 -1.5625,-0.4375 z m -24.84375,0.031 -10.6875,9.1563 c 0.02369,0.5512 0.11641,1.0839 0.21875,1.5937 l 11.96875,-10.25 c -0.479995,-0.1969 -0.980071,-0.3821 -1.5,-0.5 z m 27.75,1.0312 -13.90625,11.9063 c 0.313758,0.2285 0.727717,0.549 1.09375,0.8438 l 13.9375,-11.9688 c -0.349384,-0.2931 -0.72519,-0.5484 -1.125,-0.7813 z m -24.9375,0.094 -12.875,11.0625 c 0.169483,0.4516 0.358323,0.8778 0.59375,1.2813 l 13.46875,-11.5625 c -0.390092,-0.2676 -0.760057,-0.5414 -1.1875,-0.7813 z m 11.25,1 -17.75,15.2188 c 0.587325,0.1037 1.201784,0.1857 1.84375,0.1875 0.01066,0 0.02058,0 0.03125,0 l 14.53125,-12.4687 c -0.124566,0.039 -0.264272,0.062 -0.375,0.062 0,-0.5506 0.775177,-1.6885 1.71875,-3 z m -8.9375,0.5938 -13.8125,11.8125 c 0.287625,0.3443 0.594727,0.6785 0.9375,0.9687 l 13.96875,-11.9686 c -0.346617,-0.2785 -0.700397,-0.5085 -1.09375,-0.8125 z m 24.71875,0.062 -13.8125,11.8437 c 0.361953,0.2804 0.723355,0.5368 1.125,0.8125 l 13.46875,-11.5625 c -0.230662,-0.393 -0.492947,-0.7511 -0.78125,-1.0937 z M 21.53125,1026.8165 7.625,1038.754 c 0.411155,0.2372 0.850534,0.4554 1.3125,0.625 l 13.84375,-11.875 c -0.354024,-0.085 -0.777391,-0.3441 -1.25,-0.6875 z m 23.90625,0.75 -12.875,11.0625 c 0.418339,0.2352 0.858198,0.4382 1.3125,0.625 l 11.96875,-10.25 c -0.103825,-0.5013 -0.230776,-0.9824 -0.40625,-1.4375 z m 0.59375,3.0313 -10.65625,9.1562 c 0.57003,0.1296 1.162906,0.2163 1.78125,0.2188 0.01065,0 0.02059,0 0.03125,0 L 46,1032.4109 c 0.05067,-0.4216 0.0625,-0.8349 0.0625,-1.2813 0,-0.1766 -0.02318,-0.3586 -0.03125,-0.5312 z m -0.5625,4.0312 -5.875,5.0625 c 2.806548,-0.6607 4.906589,-2.4812 5.875,-5.0625 z m -18.84375,2 -4.0625,3.4688 c -0.148575,0.7903 -0.330319,1.5432 -0.5625,2.25 l 4.75,-4.0625 c -0.05752,-0.531 -0.09528,-1.0976 -0.125,-1.6563 z m 0.375,3.2188 -6.4375,5.5312 c -0.0081,0.012 -0.02306,0.02 -0.03125,0.031 -0.869391,1.2502 -2.005572,2.2497 -3.4375,2.9375 l -0.5625,0.4687 2.0625,0 8.71875,-7.4687 c -0.124123,-0.4808 -0.222107,-0.9856 -0.3125,-1.5 z m 0.75,2.9062 -7.09375,6.0938 2.0625,0 5.5625,-4.7813 c -0.207077,-0.4185 -0.365108,-0.8519 -0.53125,-1.3119 z m 1.21875,2.4688 -4.1875,3.625 2.03125,0 2.96875,-2.5625 c -0.2963,-0.3318 -0.562258,-0.6847 -0.8125,-1.0625 z m 1.8125,2.0312 -1.875,1.5938 2.09375,-0.031 0.90625,-0.7812 c -0.398231,-0.2308 -0.777998,-0.4993 -1.125,-0.7813 z m 2.46875,1.4063 -0.1875,0.1562 0.59375,0 c -0.143183,-0.048 -0.268175,-0.1034 -0.40625,-0.1562 z"
       id="path2830" />
    <path
       sodipodi:nodetypes="csczsscccccsszcsc"
       id="path5962"
       d="m 24.80315,1006.2979 c -5.31496,0 -8.85827,3.5434 -8.85827,8.8584 0,3.5433 7.08662,10.63 7.08662,12.4016 -1.77165,0 -5.31496,-5.315 -10.62254,-5.3125 -5.31339,0 -8.875,3.5601 -8.875,8.875 0,5.2339 3.56004,8.8437 8.875,8.8437 5.31108,0 8.85089,-5.3196 10.62254,-5.3196 0,7.0866 -1.77166,12.4015 -7.08662,14.1732 l 8.83908,0.021 8.87746,-0.021 c -5.31496,-1.7717 -7.08662,-7.0866 -7.08662,-14.1732 1.77165,0 5.30433,5.3196 10.61541,5.3196 5.31496,0 8.875,-3.6098 8.875,-8.8437 0,-5.3149 -3.68825,-8.8726 -8.875,-8.875 -5.30044,0 -8.84376,5.3125 -10.61541,5.3125 0,-1.7716 7.08662,-8.8583 7.08662,-12.4016 0,-5.315 -3.54331,-8.8584 -8.85827,-8.8584 z"
       style="fill:none;stroke:#1e0096;stroke-width:2;stroke-linejoin:round;stroke-miterlimit:4;stroke-opacity:1;stroke-dasharray:none;fill-opacity:1" />
  </g>
</svg>
