<?xml version="1.0" encoding="UTF-8" standalone="no"?>
<!-- Created with Inkscape (http://www.inkscape.org/) -->

<svg
   xmlns:dc="http://purl.org/dc/elements/1.1/"
   xmlns:cc="http://creativecommons.org/ns#"
   xmlns:rdf="http://www.w3.org/1999/02/22-rdf-syntax-ns#"
   xmlns:svg="http://www.w3.org/2000/svg"
   xmlns="http://www.w3.org/2000/svg"
   xmlns:sodipodi="http://sodipodi.sourceforge.net/DTD/sodipodi-0.dtd"
   xmlns:inkscape="http://www.inkscape.org/namespaces/inkscape"
   width="49.606297"
   height="49.606297"
   id="svg2"
   version="1.1"
   inkscape:version="0.47 r22583"
   sodipodi:docname="hearts.svg"
   inkscape:export-filename="/home/kai/thric3-project/trunk/pics/Thric3/hearts_red_full.png"
   inkscape:export-xdpi="181.42857"
   inkscape:export-ydpi="181.42857">
  <defs
     id="defs4">
    <inkscape:perspective
       sodipodi:type="inkscape:persp3d"
       inkscape:vp_x="0 : 526.18109 : 1"
       inkscape:vp_y="0 : 1000 : 0"
       inkscape:vp_z="744.09448 : 526.18109 : 1"
       inkscape:persp3d-origin="372.04724 : 350.78739 : 1"
       id="perspective10" />
    <inkscape:perspective
       id="perspective2824"
       inkscape:persp3d-origin="0.5 : 0.33333333 : 1"
       inkscape:vp_z="1 : 0.5 : 1"
       inkscape:vp_y="0 : 1000 : 0"
       inkscape:vp_x="0 : 0.5 : 1"
       sodipodi:type="inkscape:persp3d" />
    <inkscape:perspective
       id="perspective3601"
       inkscape:persp3d-origin="0.5 : 0.33333333 : 1"
       inkscape:vp_z="1 : 0.5 : 1"
       inkscape:vp_y="0 : 1000 : 0"
       inkscape:vp_x="0 : 0.5 : 1"
       sodipodi:type="inkscape:persp3d" />
  </defs>
  <sodipodi:namedview
     id="base"
     pagecolor="#ffffff"
     bordercolor="#666666"
     borderopacity="1.0"
     inkscape:pageopacity="0.0"
     inkscape:pageshadow="2"
     inkscape:zoom="11.2"
     inkscape:cx="28.196631"
     inkscape:cy="16.064443"
     inkscape:document-units="px"
     inkscape:current-layer="layer1"
     showgrid="true"
     units="cm"
     inkscape:window-width="1920"
     inkscape:window-height="1152"
     inkscape:window-x="0"
     inkscape:window-y="25"
     inkscape:window-maximized="1">
    <inkscape:grid
       type="xygrid"
       id="grid2832"
       empspacing="5"
       visible="true"
       enabled="true"
       snapvisiblegridlinesonly="true"
       units="cm"
       spacingx="0.01cm"
       spacingy="0.01cm" />
  </sodipodi:namedview>
  <metadata
     id="metadata7">
    <rdf:RDF>
      <cc:Work
         rdf:about="">
        <dc:format>image/svg+xml</dc:format>
        <dc:type
           rdf:resource="http://purl.org/dc/dcmitype/StillImage" />
        <dc:title></dc:title>
      </cc:Work>
    </rdf:RDF>
  </metadata>
  <g
     inkscape:label="Ebene 1"
     inkscape:groupmode="layer"
     id="layer1"
     transform="translate(0,-1002.7546)">
    <path
       style="fill:#c80000;stroke:none;stroke-width:2;stroke-linejoin:round;stroke-miterlimit:4;stroke-opacity:1;stroke-dasharray:none;fill-opacity:1"
       d="M 35.4375 5.3125 C 35.318743 5.3125 35.210524 5.3398216 35.09375 5.34375 L 8.78125 27.90625 C 9.0575113 28.246117 9.3610176 28.587401 9.65625 28.9375 L 37.0625 5.4375 C 36.539721 5.3716154 36.005863 5.3125 35.4375 5.3125 z M 14.4375 5.34375 L 3.625 14.59375 C 3.5730788 15.038903 3.53125 15.489651 3.53125 15.9375 C 3.53125 16.119158 3.5562761 16.290563 3.5625 16.46875 L 16.25 5.5625 C 15.668883 5.441937 15.077939 5.3594293 14.4375 5.34375 z M 12.1875 5.5 C 10.942232 5.7006528 9.8240696 6.0611866 8.84375 6.59375 L 5.8125 9.1875 C 5.0618527 10.154493 4.5018337 11.249263 4.125 12.40625 L 12.1875 5.5 z M 32.59375 5.71875 C 27.466409 7.1962207 24.872683 12.256283 24.8125 12.375 L 32.59375 5.71875 z M 24.8125 12.375 C 24.79641 12.343117 24.54226 11.885941 24.09375 11.21875 L 7.125 25.75 C 7.3839895 26.11127 7.6533424 26.475231 7.9375 26.84375 L 24.8125 12.40625 C 24.8125 12.40625 24.813099 12.376186 24.8125 12.375 z M 38.75 5.78125 L 10.5 29.96875 C 10.544984 30.020787 10.579644 30.072686 10.625 30.125 C 10.873084 30.41114 11.147847 30.685125 11.40625 30.96875 L 40.1875 6.28125 C 39.739533 6.0784793 39.249207 5.9235011 38.75 5.78125 z M 17.8125 5.96875 L 3.6875 18.09375 C 3.7626958 18.602925 3.8716014 19.105439 4 19.59375 L 19.125 6.625 C 18.703571 6.3969233 18.281035 6.145921 17.8125 5.96875 z M 41.4375 7 L 12.34375 31.96875 C 12.63872 32.27787 12.946801 32.598241 13.25 32.90625 L 42.5625 7.8125 C 42.219036 7.5102689 41.831614 7.2555129 41.4375 7 z M 20.34375 7.34375 L 4.46875 21 C 4.6284944 21.423362 4.8008442 21.833555 5 22.25 L 21.4375 8.1875 C 21.098497 7.8908731 20.734006 7.618846 20.34375 7.34375 z M 43.5 8.75 L 14.1875 33.875 C 14.508511 34.194265 14.830938 34.523604 15.15625 34.84375 L 44.3125 9.84375 C 44.065049 9.4613455 43.799947 9.0972837 43.5 8.75 z M 22.40625 9.125 L 5.65625 23.46875 C 5.8825455 23.865296 6.1150756 24.257974 6.375 24.65625 L 23.3125 10.15625 C 23.047579 9.825099 22.741597 9.4773225 22.40625 9.125 z M 45 11.03125 L 16.125 35.78125 C 16.446871 36.097945 16.740864 36.430449 17.0625 36.75 L 45.5 12.34375 C 45.356624 11.903709 45.1977 11.449294 45 11.03125 z M 45.875 13.8125 L 18.03125 37.6875 C 18.346535 38.006927 18.657949 38.332096 18.96875 38.65625 L 46.03125 15.4375 C 46.007742 14.894025 45.973304 14.347407 45.875 13.8125 z M 46 17.28125 L 19.90625 39.65625 C 20.205569 39.981031 20.49038 40.325016 20.78125 40.65625 L 45.6875 19.3125 C 45.844654 18.659808 45.937742 17.974501 46 17.28125 z M 44.8125 21.8125 L 21.6875 41.65625 C 21.974482 42.003135 22.226154 42.363147 22.5 42.71875 L 42.75 25.34375 C 43.572583 24.159145 44.288012 22.99579 44.8125 21.8125 z M 38.03125 31.15625 L 23.3125 43.78125 C 23.571314 44.146937 23.821179 44.529853 24.0625 44.90625 L 27.96875 41.5625 C 31.090615 37.822966 34.891352 34.567366 38.03125 31.15625 z "
       transform="translate(0,1002.7546)"
       id="path2830" />
    <text
       xml:space="preserve"
       style="font-size:8px;font-style:normal;font-variant:normal;font-weight:normal;font-stretch:normal;fill:#000000;fill-opacity:1;stroke:none;font-family:Arial Black;-inkscape-font-specification:Arial Black"
       x="-8.8582678"
       y="960.23492"
       id="text2816"><tspan
         sodipodi:role="line"
         id="tspan2818"
         x="-8.8582678"
         y="960.23492">Colors:</tspan><tspan
         sodipodi:role="line"
         x="-8.8582678"
         y="970.23492"
         id="tspan2820">red: 200, 0, 0</tspan><tspan
         sodipodi:role="line"
         x="-8.8582678"
         y="980.23492"
         id="tspan2822">green: 0, 150, 30</tspan><tspan
         sodipodi:role="line"
         x="-8.8582678"
         y="990.23492"
         id="tspan2824">blue: 30, 0, 200</tspan></text>
    <path
       sodipodi:nodetypes="czzscszzc"
       id="path3660"
       d="m 24.80315,1015.1562 c 0,0 -3.543307,-7.0866 -10.629922,-7.0866 -6.987572,0 -10.629921,5.3343 -10.629921,10.6299 0,5.2956 2.659879,9.0674 7.086614,14.1732 4.426735,5.1058 10.620326,9.7547 14.154039,15.966 3.552902,-6.2113 9.760885,-10.8588 14.192418,-15.966 4.431532,-5.1072 7.086614,-8.8804 7.086614,-14.1732 0,-5.2928 -3.543307,-10.6299 -10.629921,-10.6299 -7.073116,0 -10.629921,7.0866 -10.629921,7.0866 z"
       style="fill:none;stroke:#c80000;stroke-width:2;stroke-linejoin:round;stroke-miterlimit:4;stroke-opacity:1;stroke-dasharray:none" />
  </g>
</svg>
